<svg xmlns="http://www.w3.org/2000/svg" id="Layer_2" viewBox="0 0 123.29 150"><defs><style>.cls-1{fill:#231f20;stroke-width:0}</style></defs><g id="Layer_1-2"><path d="m93.42 39.2-7.38-1.91-.2.24c12.06 12 23.84 24.28 35.83 36.35 1.56 1.58 1.98 3.23 1.33 5.32-5.34 15.47-.51 16.07-18.52 14.81-.52-.03-1.11-.52-1.49-.96-2.52-2.92-4.97-5.9-7.51-8.81-.46-.53-1.13-.99-1.8-1.2-8.68-2.48-22.7-4.81-26.07-7.81-7.51-7.3-12.55-23.24-.6-35.1-14.15 8.84-20.03 27.58-14.43 43.17-14.92 7.62-18.56 27.18-9.57 40.66 8.75 14.63 25.17 21.94 41.71 23.23-39.58 12.57-92.33-18.64-80.68-63.88 5.92-29.66 31.82-53.23 62.46-53.3C33.13 21.9-4.78 60.72 2.12 82.87-10.5 42.34 35.83 4.11 71.09 24.43c-.32-6.76-1.28-13.79 1.65-20.48 17.79 20.17 2.87 25.39 20.8 34.88-.04.13-.09.25-.13.38zM76.8 42.76l-.23.37c4.08 4.67 9.01 8.16 15.12 10.79-1.77-2.83-2.46-5.93-4.59-7.95-3.43-1.09-6.87-2.14-10.3-3.21z" class="cls-1"/><path d="m89.89 32.43-3.43-5.64c-.57-.94-.32-2.15.57-2.79 11.12-7.91 22.23-15.82 33.74-24-9.92 13.51-17.82 23.56-28.02 32.84-.87.79-2.26.6-2.87-.41z" class="cls-1"/></g></svg>